<?xml version="1.0" standalone="no"?>
<!DOCTYPE svg PUBLIC "-//W3C//DTD SVG 20010904//EN"
 "http://www.w3.org/TR/2001/REC-SVG-20010904/DTD/svg10.dtd">
<svg version="1.0" xmlns="http://www.w3.org/2000/svg"
 width="124.000000pt" height="124.000000pt" viewBox="0 0 124.000000 124.000000"
 preserveAspectRatio="xMidYMid meet">

<g transform="translate(0.000000,124.000000) scale(0.100000,-0.100000)"
fill="#000000" stroke="none">
<path d="M535 1234 c-241 -38 -441 -213 -511 -449 -25 -82 -25 -248 0 -330 62
-208 223 -369 431 -431 82 -25 248 -25 330 0 208 62 369 223 431 431 25 82 25
248 0 330 -61 206 -224 370 -426 429 -56 17 -202 28 -255 20z m172 -201 c44
-21 89 -82 98 -132 14 -82 -33 -167 -110 -202 -172 -78 -337 125 -225 279 15
21 43 46 61 55 44 21 131 22 176 0z m58 -490 c127 -32 225 -101 225 -159 0
-35 -92 -123 -169 -162 -33 -16 -92 -36 -131 -43 -135 -24 -281 24 -386 126
-62 61 -68 87 -29 134 34 40 76 65 155 91 116 39 216 43 335 13z"/>
</g>
</svg>
