<?xml version="1.0" standalone="no"?>
<!DOCTYPE svg PUBLIC "-//W3C//DTD SVG 20010904//EN"
 "http://www.w3.org/TR/2001/REC-SVG-20010904/DTD/svg10.dtd">
<svg version="1.0" xmlns="http://www.w3.org/2000/svg"
 width="200.000000pt" height="200.000000pt" viewBox="0 0 200.000000 200.000000"
 preserveAspectRatio="xMidYMid meet">

<g transform="translate(0.000000,200.000000) scale(0.100000,-0.100000)"
fill="#000000" stroke="none">
<path d="M392 1508 c-7 -7 -12 -19 -12 -28 0 -30 23 -40 95 -40 l70 0 126
-377 125 -378 -23 -34 c-27 -40 -29 -61 -6 -108 30 -64 124 -81 171 -30 27 29
42 70 35 96 -5 21 -3 21 131 21 l136 0 0 -29 c0 -47 17 -79 52 -101 39 -24 69
-25 108 -5 74 38 80 147 10 188 -24 15 -63 17 -278 17 -268 0 -268 0 -274 53
l-3 28 288 -1 c180 0 294 3 307 10 13 7 40 74 94 240 42 127 76 236 76 244 0
8 -7 17 -16 20 -9 3 -222 6 -474 6 l-458 0 -32 98 c-18 53 -39 103 -48 110
-21 16 -184 16 -200 0z"/>
</g>
</svg>
